# xmcd CD database file
#
# Track frame offsets:
#	150
#	18559
#	34567
#	52739
#	73962
#	83879
#	101634
#	109182
#	126523
#	141011
#	160364
#	175786
#
# Disc length: 2650 seconds
#
# Revision: 3
# Processed by: cddbd v1.5.2PL0 Copyright (c) Steve Scherf et al.
# Submitted via: CDex 1.77
#
DISCID=a20a580c
DTITLE=Morcheeba - Fragments Of Freedom
DYEAR=2000
DGENRE=Pop
TTITLE0=World looking in
TTITLE1=Rome wasn't built in a day
TTITLE2=Love is rare
TTITLE3=Let it go
TTITLE4=A well deserved break
TTITLE5=Love sweet love (feat. mr complex)
TTITLE6=In the hands of the gods (feat. biz markie)
TTITLE7=Shallow end
TTITLE8=Be yourself
TTITLE9=Coming down gently
TTITLE10=Good girl down (feat. bahamadia)
TTITLE11=Fragments of freedom
EXTD=YEAR: 2000
EXTT0=
EXTT1=
EXTT2=
EXTT3=
EXTT4=
EXTT5=
EXTT6=
EXTT7=
EXTT8=
EXTT9=
EXTT10=
EXTT11=
PLAYORDER=
